<?xml version="1.0" standalone="no"?><!DOCTYPE svg PUBLIC "-//W3C//DTD SVG 1.1//EN" "http://www.w3.org/Graphics/SVG/1.1/DTD/svg11.dtd"><svg t="1627883892411" class="icon" viewBox="0 0 1024 1024" version="1.1" xmlns="http://www.w3.org/2000/svg" p-id="642" xmlns:xlink="http://www.w3.org/1999/xlink" width="200" height="200"><defs><style type="text/css"></style></defs><path d="M872.56515571 820.23997859v73.0556856a51.57102996 51.57102996 0 0 1-103.06350389 0v-73.0556856a205.4200173 205.4200173 0 0 0 51.53175195 7.14845968c17.91042649 0 34.95675318-2.86723863 51.57102859-7.14845968z m-299.17481338-224.27309823v297.25022918a51.57102996 51.57102996 0 0 1-103.10278191 0v-297.32878248c16.53572213 4.20266637 33.62132546 7.06990501 51.53175194 7.06990503 17.91042649 0 34.95675318-2.86723863 51.57102997-7.06990503v0.0785533z m-299.25336941 224.27309823v73.0556856a51.57102996 51.57102996 0 0 1-103.10278054 0v-73.0556856a205.4200173 205.4200173 0 0 0 51.57102859 7.14845968c17.91042649 0 34.95675318-2.86723863 51.53175195-7.14845968z m-51.53175195-347.76077203a142.65497197 142.65497197 0 1 1 0 285.30994533 142.65497197 142.65497197 0 0 1 0-285.30994533z m598.4281828 0a142.65497197 142.65497197 0 1 1 0 285.30994533 142.65497197 142.65497197 0 0 1 0-285.30994533z m-598.4281828 103.10278191a39.63074471 39.63074471 0 1 0 0.07855466 79.2614908 39.63074471 39.63074471 0 0 0-0.07855466-79.2614908z m598.4281828 0a39.63074471 39.63074471 0 1 0 0.07855464 79.2614908 39.63074471 39.63074471 0 0 0-0.07855464-79.2614908z m-299.21409141-327.41515681a142.65497197 142.65497197 0 1 1 0 285.30994396 142.65497197 142.65497197 0 0 1 0-285.30994396z m0 103.10278193a39.67002273 39.67002273 0 0 0 0 79.10438148 39.63074471 39.63074471 0 0 0 0-79.18293614v0.07855466z m-299.21409139-290.1803242c28.47600601 0 51.53175195 23.09502258 51.53175195 51.57102998v297.36805909a208.79786187 208.79786187 0 0 0-51.53175195-7.06990501c-17.91042649 0-34.95675318 2.86723863-51.57102859 7.06990501V112.66031937a51.57102996 51.57102996 0 0 1 51.57102859-51.64958462v0.07855464z m598.4281828 0c28.47600601 0 51.57102996 23.09502258 51.57102859 51.57102998v297.36805909a208.79786187 208.79786187 0 0 0-51.57102859-7.06990501c-17.87114849 0-34.95675318 2.86723863-51.53175195 7.06990501V112.66031937a51.57102996 51.57102996 0 0 1 51.53175195-51.64958462v0.07855464z m-299.21409141 0c28.47600601 0 51.57102996 23.09502258 51.57102997 51.57102998v72.89857491a208.79786187 208.79786187 0 0 0-51.57102997-6.99135036c-17.91042649 0-34.95675318 2.86723863-51.57102857 7.06990501V112.66031937a51.57102996 51.57102996 0 0 1 51.57102857-51.57102998z" p-id="643"></path></svg>