<?xml version="1.0" standalone="no"?><!DOCTYPE svg PUBLIC "-//W3C//DTD SVG 1.1//EN" "http://www.w3.org/Graphics/SVG/1.1/DTD/svg11.dtd"><svg t="1627883760545" class="icon" viewBox="0 0 1024 1024" version="1.1" xmlns="http://www.w3.org/2000/svg" p-id="642" xmlns:xlink="http://www.w3.org/1999/xlink" width="200" height="200"><defs><style type="text/css"></style></defs><path d="M690.08733147 14.07256023H265.64056273a150.32572428 150.32572428 0 0 0-150.12714368 150.12714366v700.5933372a150.32572428 150.32572428 0 0 0 150.12714368 150.12714369h500.42381232a150.32572428 150.32572428 0 0 0 150.12714366-150.12714369V298.91697065L690.08733147 14.07256023z m126.01942479 850.72048086c0 27.6027422-22.43963905 50.04238125-50.04238121 50.04238123h-500.42381232c-27.6027422 0-50.04238125-22.43963905-50.0423812-50.04238123V164.19970389c0-27.6027422 22.43963905-50.04238125 50.0423812-50.04238124h376.19161539l174.27457814 219.63044988v531.00526856z" p-id="643"></path><path d="M365.72532518 367.27425554h220.50420746c27.48359412 0 50.04238125-22.55878711 50.04238119-50.04238117 0-27.48359412-22.55878711-50.04238125-50.04238119-50.04238127h-220.50420746c-27.48359412 0-50.04238125 22.55878711-50.04238121 50.04238127 0 27.48359412 22.55878711 50.04238125 50.04238121 50.04238117z m-50.04238121 167.4433966c0 27.48359412 22.55878711 50.04238125 50.04238121 50.0423812h300.25428737c27.48359412 0 50.04238125-22.55878711 50.04238124-50.0423812 0-27.48359412-22.55878711-50.04238125-50.04238124-50.04238126h-300.25428737c-27.48359412 0-50.04238125 22.55878711-50.04238121 50.04238126z m350.29666858 167.5625446h-300.25428737c-27.48359412 0-50.04238125 22.55878711-50.04238121 50.0423812 0 27.48359412 22.55878711 50.04238125 50.04238121 50.04238127h300.25428737c27.48359412 0 50.04238125-22.59850409 50.04238124-50.04238127 0-27.6027422-22.55878711-50.04238125-50.04238124-50.0423812z" p-id="644"></path></svg>