<?xml version="1.0" standalone="no"?><!DOCTYPE svg PUBLIC "-//W3C//DTD SVG 1.1//EN" "http://www.w3.org/Graphics/SVG/1.1/DTD/svg11.dtd"><svg t="1627883902532" class="icon" viewBox="0 0 1024 1024" version="1.1" xmlns="http://www.w3.org/2000/svg" p-id="904" xmlns:xlink="http://www.w3.org/1999/xlink" width="200" height="200"><defs><style type="text/css"></style></defs><path d="M666.17629963 477.85497759a259.46027638 259.46027638 0 0 0 55.00909716-363.02652989 260.04681779 260.04681779 0 0 0-363.40359151-54.88341191 259.46027638 259.46027638 0 0 0 0 417.9099418A389.37894687 389.37894687 0 0 0 51.14693226 856.92757305v55.72132529A102.14179872 102.14179872 0 0 0 153.37252261 1014.7488005h717.25495478A102.14179872 102.14179872 0 0 0 972.85306774 912.64889834v-55.72132529a389.37894687 389.37894687 0 0 0-306.63487302-379.07259546z m-154.00871638-377.6062456a169.55203363 169.55203363 0 0 1 169.34255382 169.80340704 169.55203363 169.55203363 0 0 1-169.9709903 169.17497202 169.55203363 169.55203363 0 0 1-169.34255381-169.51013709 169.88719868 169.88719868 0 0 1 169.97099029-169.46824197z m370.77724025 812.35827126a12.27544956 12.27544956 0 0 1-12.31734611 12.31734464H153.37252261a12.27544956 12.27544956 0 0 1-12.31734611-12.27544955v-55.72132529a299.55449426 299.55449426 0 0 1 299.7639726-297.92055966h143.86994822a299.55449426 299.55449426 0 0 1 299.72207752 299.42880607l-1.46635134 54.21307888zM518.70331718 603.33269901c-24.84417057 0-44.95412211 20.10995154-44.95412211 44.91222557v133.81497317a44.95412211 44.95412211 0 0 0 89.90824423 0v-133.81497317c0-24.80227401-20.10995154-44.91222556-44.95412212-44.91222557z" p-id="905"></path></svg>